<?xml version="1.0" encoding="utf-8"?>
<svg version="1.1" x="0px" y="0px" viewBox="0 0 52 52" enable-background="new 0 0 52 52" xmlns="http://www.w3.org/2000/svg">
  <g>
    <path d="M48.21575,23.2168c-1.1798,0-2.1842,0.7419-2.5876,1.7812h-1.9368c-0.224-4.0206-1.7873-7.7865-4.4816-10.7956   l1.3737-1.3738c0.3449,0.1536,0.7242,0.2427,1.1255,0.2427c1.5332,0,2.7812-1.2481,2.7812-2.7813   c0-1.5342-1.248-2.7822-2.7812-2.7822c-1.5342,0-2.7822,1.248-2.7822,2.7822c0,0.4009,0.08912,0.7801,0.2425,1.1247l-1.3727,1.3726   c-3.0022-2.6942-6.7722-4.2575-10.8064-4.4808v-1.934c1.0425-0.4021,1.7872-1.4077,1.7872-2.5903   c0-1.5342-1.2481-2.7822-2.7823-2.7822c-1.53419,0-2.78218,1.248-2.78218,2.7822c0,1.179,0.73989,2.1826,1.77728,2.5872v1.9372   c-4.03028,0.2234-7.7972,1.7871-10.7968,4.4805l-1.3661-1.3661c0.1553-0.3464,0.246-0.7275,0.246-1.131   c0-1.5342-1.2481-2.7822-2.7823-2.7822s-2.7822,1.248-2.7822,2.7822c0,1.5332,1.248,2.7813,2.7822,2.7813   c0.3986,0,0.7761-0.0877,1.1192-0.2393l1.3694,1.3694c-2.6941,3.0015-4.2573,6.7678-4.4808,10.7966h-1.927   c-0.4034-1.0393-1.408-1.7812-2.5886-1.7812c-1.5332,0-2.7812,1.248-2.7812,2.7812c0,1.5342,1.248,2.7823,2.7812,2.7823   c1.18071,0,2.1855-0.7422,2.5888-1.7823h1.9267c0.2234,4.0392,1.7889,7.8113,4.4804,10.8069l-1.37218,1.3721   c-0.34461-0.1533-0.72381-0.2424-1.12472-0.2424c-1.5341,0-2.7822,1.248-2.7822,2.7822c0,1.5332,1.2481,2.7812,2.7822,2.7812   c1.5332,0,2.7813-1.248,2.7813-2.7812c0-0.4013-0.0891-0.7807-0.24259-1.1255l1.35618-1.3563   c3.0213,2.6838,6.7777,4.2385,10.8131,4.4696v1.9269c-1.0374,0.4044-1.77728,1.408-1.77728,2.5863   c0,1.5341,1.248,2.7822,2.78218,2.7822c1.5342,0,2.7823-1.2481,2.7823-2.7822c0-1.1818-0.7447-2.1873-1.7872-2.5894v-1.9238   c3.8294-0.2193,7.3213-1.6485,10.0616-3.8335c0.2563-0.2039,0.4915-0.439,0.7382-0.6592l1.376,1.376   c-0.1517,0.343-0.2392,0.7204-0.2392,1.1191c0,1.5342,1.248,2.7822,2.7822,2.7822c1.5332,0,2.7812-1.248,2.7812-2.7822   c0-1.5342-1.248-2.7822-2.7812-2.7822c-0.4038,0-0.7852,0.0907-1.1318,0.2461l-1.3674-1.3674   c2.6948-3.0098,4.258-6.7793,4.4816-10.8055h1.9367c0.4032,1.0401,1.4077,1.7823,2.5877,1.7823   c1.5342,0,2.7823-1.2481,2.7823-2.7823C50.99805,24.4648,49.74995,23.2168,48.21575,23.2168z M41.70895,9.5078   c0.4307,0,0.7812,0.3506,0.7812,0.7822c0,0.4307-0.3505,0.7813-0.7812,0.7813c-0.2078,0-0.3943-0.0843-0.5344-0.2166   c-0.0054-0.0056-0.0069-0.0132-0.0125-0.0188c-0.0055-0.0055-0.013-0.0071-0.0187-0.0124   c-0.1323-0.1399-0.2166-0.3262-0.2166-0.5335C40.92675,9.8584,41.27735,9.5078,41.70895,9.5078z M10.29095,11.0713   c-0.4316,0-0.7822-0.3506-0.7822-0.7813c0-0.4316,0.3506-0.7822,0.7822-0.7822c0.4317,0,0.7823,0.3506,0.7823,0.7822   C11.07325,10.7207,10.72265,11.0713,10.29095,11.0713z M3.78315,26.7803c-0.4307,0-0.7812-0.3506-0.7812-0.7823   c0-0.4306,0.3505-0.7812,0.7812-0.7812c0.43171,0,0.7822,0.3506,0.7822,0.7812C4.56535,26.4297,4.21487,26.7803,3.78315,26.7803z    M10.28215,42.498c-0.4316,0-0.7822-0.3506-0.7822-0.7812c0-0.4317,0.3506-0.7822,0.7822-0.7822   c0.43072,0,0.7813,0.3505,0.7813,0.7822C11.06345,42.1474,10.71287,42.498,10.28215,42.498z M41.70895,40.9248   c0.4307,0,0.7812,0.3506,0.7812,0.7822c0,0.4317-0.3505,0.7822-0.7812,0.7822c-0.4316,0-0.7822-0.3505-0.7822-0.7822   C40.92675,41.2926,41.29287,40.9248,41.70895,40.9248z M25.99505,3c0.4317,0,0.7823,0.3506,0.7823,0.7822   c0,0.4317-0.3506,0.7822-0.7823,0.7822c-0.4316,0-0.78218-0.3505-0.78218-0.7822C25.21287,3.3506,25.56345,3,25.99505,3z    M25.99505,49c-0.4316,0-0.78218-0.3506-0.78218-0.7822c0-0.4307,0.35058-0.7813,0.78218-0.7813   c0.4317,0,0.7823,0.3506,0.7823,0.7813C26.77735,48.6494,26.42675,49,25.99505,49z M35.42965,38.5859   c-5.1996,3.9041-13.0735,4.3723-18.8594,0.0028V35.998c0-2.2773,1.8614-4.1298,4.1494-4.1298h1.9756l2.3047,5.0732   c0.1611,0.3555,0.5137,0.584,0.9033,0.5869c0.003,0,0.0049,0,0.0069,0c0.38771,0,0.7402-0.2236,0.9052-0.5742l2.3897-5.0859h2.0644   c2.294,0,4.1602,1.8525,4.1602,4.1298V38.5859z M41.73945,26.0137c-0.004,4.0423-1.5384,7.8462-4.3098,10.7791V35.998   c0-3.3798-2.7637-6.1298-6.1602-6.1298h-2.6992c-0.3877,0-0.7402,0.2236-0.9053,0.5742l-1.7392,3.7021l-1.6758-3.6894   c-0.16208-0.3575-0.5176-0.5869-0.91008-0.5869h-2.62022c-3.3906,0-6.1494,2.75-6.1494,6.1298v0.8067   c-2.77738-2.9248-4.3156-6.7329-4.3196-10.791c0.0001-0.0055,0.00322-0.0101,0.00322-0.0157s-0.00312-0.0101-0.00322-0.0156   c0.0086-8.6228,6.9978-15.7153,15.724-15.7239c0.0055,0,0.01,0.0032,0.0155,0.0032c0.0056,0,0.0102-0.0032,0.01571-0.0032   c8.72359,0.0083,15.72508,7.0913,15.73358,15.7239c0,0.0056-0.0032,0.01-0.0032,0.0156S41.73945,26.008,41.73945,26.0137z    M48.21575,26.7803c-0.4306,0-0.7812-0.3506-0.7812-0.7823c0-0.4306,0.3506-0.7812,0.7812-0.7812   c0.4317,0,0.7823,0.3506,0.7823,0.7812C48.99805,26.4297,48.64745,26.7803,48.21575,26.7803z"/>
    <path d="M25.99505,15.0117c-3.2968,0-5.9795,2.668-5.9795,5.9473c0,3.1543,2.5108,7.832,5.9795,7.832   c3.46881,0,5.9795-4.6777,5.9795-7.832C31.97455,17.6797,29.29195,15.0117,25.99505,15.0117z M25.99505,26.791   c-1.9746,0-3.9795-3.3936-3.9795-5.832c0-2.1768,1.7852-3.9473,3.9795-3.9473c2.1944,0,3.9795,1.7705,3.9795,3.9473   C29.97455,23.3974,27.96965,26.791,25.99505,26.791z"/>
  </g>
</svg>