<?xml version="1.0" encoding="utf-8"?>
<svg version="1.1" x="0px" y="0px" viewBox="12.043 226.431 1697.758 656.927" enable-background="new 0 0 1000 1000" xmlns="http://www.w3.org/2000/svg">
  <g transform="matrix(1, 0, 0, 1, 134, 59)">
    <g transform="translate(0.000000,511.000000) scale(0.100000,-0.100000)">
      <path d="M 3309.366 3390.593 C 3204.066 3361.893 3096.866 3269.993 3049.066 3168.593 C 3022.266 3107.293 3018.466 2841.293 3012.666 274.493 L 3008.866 -2554.507 L 2721.766 -2554.507 L 2434.666 -2554.507 L 2434.666 -2665.507 L 2434.666 -2774.607 L 2685.366 -2971.707 L 2936.066 -3166.907 L 7334.666 -3166.907 L 11733.166 -3166.907 L 11983.966 -2971.707 L 12234.666 -2774.607 L 12234.666 -2665.507 L 12234.666 -2554.507 L 11947.566 -2554.507 L 11660.466 -2554.507 L 11660.466 220.893 C 11660.466 2203.893 11654.766 3023.093 11639.466 3095.793 C 11608.866 3239.393 11482.466 3365.693 11338.966 3396.293 C 11181.966 3428.793 3433.766 3423.093 3309.366 3390.593 Z M 11319.766 3076.693 C 11340.866 3055.593 11344.666 2523.493 11344.666 253.493 L 11344.666 -2544.907 L 9784.666 -2550.607 L 8222.766 -2554.407 L 8188.266 -2621.407 C 8167.266 -2659.707 8119.366 -2707.507 8082.966 -2732.407 C 8015.966 -2774.507 8004.466 -2774.507 7334.566 -2774.507 C 6685.666 -2774.507 6651.266 -2772.607 6588.066 -2736.207 C 6551.666 -2713.207 6503.866 -2663.507 6482.766 -2625.207 L 6444.666 -2554.507 L 4890.366 -2554.507 L 3334.266 -2554.507 L 3334.266 259.193 C 3334.266 2915.893 3336.166 3072.893 3368.666 3090.093 C 3389.766 3103.493 4683.666 3109.193 7347.966 3105.393 C 10556.066 3101.493 11298.666 3097.693 11319.766 3076.693 Z"/>
      <path d="M 7511.6 2383.6 C 7502 2358.7 7350.8 1964.4 7174.7 1507 C 6998.6 1049.5 6849.3 659.1 6843.6 639.9 C 6835.9 609.3 6845.5 605.4 6937.4 611.2 L 7038.8 616.9 L 7289.5 1267.7 C 7427.3 1625.6 7584.3 2033.3 7637.9 2173 L 7735.5 2425.7 L 7632.2 2425.7 C 7542.2 2425.7 7525 2419.9 7511.6 2383.6 Z"/>
      <path d="M 6112.4 1750 L 5547.8 1459.1 L 5547.8 1376.8 L 5547.8 1294.5 L 6122 997.8 C 6437.8 837 6703.9 703 6711.5 703 C 6719.2 703 6724.9 748.9 6721.1 804.4 L 6715.4 903.9 L 6246.5 1141.2 L 5777.6 1378.5 L 6252.3 1613.9 L 6725.1 1851.2 L 6725.1 1946.9 C 6725.1 2012 6717.4 2042.6 6702.1 2042.6 C 6688.6 2041 6422.5 1910.8 6112.4 1750 Z"/>
      <path d="M 7835.1 1947.2 L 7835.1 1851.5 L 8304 1618 C 8562.4 1487.8 8772.9 1378.7 8772.9 1373 C 8772.9 1367.3 8562.4 1260.1 8307.8 1133.7 L 7844.6 904 L 7838.9 804.5 C 7835.1 749 7840.8 703.1 7848.5 703.1 C 7856.1 703.1 8122.2 835.2 8438 997.9 L 9012.2 1292.7 L 9017.9 1375 L 9021.7 1459.2 L 8449.4 1752 C 8135.5 1910.9 7867.5 2042.9 7856 2042.9 C 7842.7 2042.9 7835.1 2004.6 7835.1 1947.2 Z"/>
      <path d="M 5710.5 -24.3 L 5710.5 -120 L 6217.7 -120 L 6724.9 -120 L 6724.9 -24.3 L 6724.9 71.4 L 6217.7 71.4 L 5710.5 71.4 L 5710.5 -24.3 Z"/>
      <path d="M 7184.3 -24.3 L 7184.3 -120 L 7366.1 -120 L 7548 -120 L 7548 -24.3 L 7548 71.4 L 7366.2 71.4 L 7184.4 71.4 L 7184.4 -24.3 Z"/>
      <path d="M 7988.2 -24.3 L 7988.2 -120 L 8170 -120 L 8351.8 -120 L 8351.8 -24.3 L 8351.8 71.4 L 8170 71.4 L 7988.2 71.4 L 7988.2 -24.3 Z"/>
      <path d="M 5710.5 -349.7 L 5710.5 -445.4 L 6055 -445.4 L 6399.5 -445.4 L 6399.5 -349.7 L 6399.5 -254 L 6055 -254 L 5710.5 -254 L 5710.5 -349.7 Z"/>
      <path d="M 6686.6 -349.7 L 6686.6 -445.4 L 7031.1 -445.4 L 7375.6 -445.4 L 7375.6 -349.7 L 7375.6 -254 L 7031.1 -254 L 6686.6 -254 L 6686.6 -349.7 Z"/>
      <path d="M 7509.7 -349.7 L 7509.7 -445.4 L 7854.2 -445.4 L 8198.7 -445.4 L 8198.7 -349.7 L 8198.7 -254 L 7854.2 -254 L 7509.7 -254 L 7509.7 -349.7 Z"/>
      <path d="M 8485.9 -349.7 L 8485.9 -445.4 L 8830.4 -445.4 L 9174.9 -445.4 L 9174.9 -349.7 L 9174.9 -254 L 8830.4 -254 L 8485.9 -254 L 8485.9 -349.7 Z"/>
      <path d="M 5901.9 -703.8 L 5901.9 -809.1 L 6229.2 -809.1 L 6554.6 -809.1 L 6548.9 -707.7 L 6543.2 -608.2 L 6223.5 -602.5 L 5901.9 -598.7 L 5901.9 -703.8 Z"/>
      <path d="M 5710.5 -1000.5 L 5710.5 -1096.2 L 6055 -1096.2 L 6399.5 -1096.2 L 6399.5 -1000.5 L 6399.5 -904.8 L 6055 -904.8 L 5710.5 -904.8 L 5710.5 -1000.5 Z"/>
      <path d="M 6858.9 -1000.5 L 6858.9 -1096.2 L 7117.3 -1096.2 L 7375.7 -1096.2 L 7375.7 -1000.5 L 7375.7 -904.8 L 7117.3 -904.8 L 6858.9 -904.8 L 6858.9 -1000.5 Z"/>
      <path d="M 5710.5 -1325.9 L 5710.5 -1421.6 L 6543.1 -1421.6 L 7375.7 -1421.6 L 7375.7 -1325.9 L 7375.7 -1230.2 L 6543.1 -1230.2 L 5710.5 -1230.2 L 5710.5 -1325.9 Z"/>
      <path d="M 7835.1 -1325.9 L 7835.1 -1421.6 L 8179.6 -1421.6 L 8524.1 -1421.6 L 8524.1 -1325.9 L 8524.1 -1230.2 L 8179.6 -1230.2 L 7835.1 -1230.2 L 7835.1 -1325.9 Z"/>
      <path d="M 5538.2 -1651.3 L 5538.2 -1747 L 6543.1 -1747 L 7548 -1747 L 7548 -1651.3 L 7548 -1555.6 L 6543.1 -1555.6 L 5538.2 -1555.6 L 5538.2 -1651.3 Z"/>
      <path d="M 8160.5 -1651.3 L 8160.5 -1747 L 8505 -1747 L 8849.5 -1747 L 8849.5 -1651.3 L 8849.5 -1555.6 L 8505 -1555.6 L 8160.5 -1555.6 L 8160.5 -1651.3 Z"/>
      <g transform="matrix(3.133858, 0, 0, -3.360713, 12809.027344, 158.742065)" style="">
        <g transform="translate(0.000000,511.000000) scale(0.100000,-0.100000)">
          <path d="M3937.3,4903c-222.3-191.7-300.1-450.1-202.8-689.1c22.2-55.6,130.6-186.2,236.2-286.2c183.4-172.3,194.5-188.9,194.5-302.9c0-113.9-11.1-133.4-166.7-275.1c-169.5-158.4-208.4-255.6-133.4-330.6c72.2-72.2,161.1-33.3,352.9,155.6c227.8,222.3,275.1,355.7,211.2,600.2c-30.6,119.5-66.7,169.5-247.3,339c-200.1,186.1-211.2,202.8-211.2,316.7c0,108.4,13.9,133.4,152.8,266.7c163.9,161.1,180.6,200,102.8,269.5C4148.5,5039.1,4079,5022.4,3937.3,4903z"/>
          <path d="M967.1,2144c-233.4-125-347.3-391.8-275.1-658.5c22.2-88.9,72.2-163.9,169.5-258.4l136.1-130.6v-2495.1c0-2067.2,5.6-2520,38.9-2628.4c91.7-300.1,339-564.1,647.4-689.1l161.1-63.9l2272.8-8.3c1494.8-5.5,2328.3,2.8,2431.2,22.2c486.2,88.9,858.6,500.1,889.1,986.3l13.9,205.6l113.9,19.4c180.6,27.8,525.1,158.3,700.1,263.9c366.8,216.7,750.2,664.1,908.6,1061.4c163.9,411.2,202.8,972.5,91.7,1394.8c-63.9,238.9-269.5,639-433.4,839.1c-311.2,380.7-811.3,680.7-1283.7,769.6l-105.6,19.5v172.3c0,158.4,5.6,177.8,77.8,225.1c138.9,91.7,211.2,227.8,222.3,416.8c11.1,216.7-66.7,383.4-238.9,502.9l-122.3,83.4l-3145.2,8.3l-3145.2,5.6L967.1,2144z M7332.6,1882.8c108.4-75,136.2-125,138.9-238.9c0-80.6-19.5-125-80.6-188.9c-44.4-44.5-100-80.6-125-80.6c-22.2,0-61.1-27.8-83.3-61.1c-38.9-55.6-44.5-352.9-44.5-2634v-2570.1l-66.7-138.9c-80.6-177.8-213.9-311.2-391.7-391.7l-138.9-66.7H4217.9c-2572.9,0-2464.5-8.4-2686.8,183.4c-63.9,52.8-147.3,166.7-191.7,255.6l-77.8,158.4l-8.3,2581.2c-5.6,2342.3-11.1,2589.5-52.8,2634c-25,27.8-58.3,50-77.8,50c-66.7,0-186.2,161.1-188.9,258.4c-2.8,111.1,66.7,233.4,155.6,269.5c33.3,13.9,1419.8,25,3117.4,25C7043.6,1930,7268.7,1927.2,7332.6,1882.8z M7832.7,382.4C8599.6,79.5,9102.5-706.8,9046.9-1518.1c-36.1-480.7-225.1-897.4-561.3-1233.6c-272.3-269.6-575.1-436.3-966.9-525.1l-77.8-19.5l8.3,252.9l8.3,252.8l138.9,47.2c555.7,188.9,958.6,750.2,958.6,1336.4c0,330.6-144.5,711.3-364,958.6C8041.1-278.9,7791-115,7593.8-51l-150,47.2v247.3v247.3l105.6-19.5C7604.9,460.2,7732.7,421.3,7832.7,382.4z M7718.8-412.3c283.4-169.5,475.1-452.9,536.2-800.2c55.6-325.1-63.9-714.1-294.5-950.3c-127.8-130.6-316.7-252.8-439-283.4l-77.8-19.5v1089.2V-290l63.9-16.7C7541-317.8,7635.4-365,7718.8-412.3z"/>
          <path d="M1475.6,1357.6c-77.8-55.6-77.8-161.1,0-216.7c55.6-38.9,325.1-44.5,2356.1-44.5c2500.6,0,2417.3-5.6,2417.3,152.8s83.3,152.8-2417.3,152.8C1800.7,1402.1,1531.2,1396.5,1475.6,1357.6z"/>
          <path d="M6499.1,1346.5c-30.6-30.6-55.6-75-55.6-97.2c0-77.8,105.6-152.8,216.7-152.8c130.6,0,227.8,66.7,227.8,152.8C6888,1391,6613,1460.4,6499.1,1346.5z"/>
        </g>
      </g>
    </g>
  </g>
</svg>