<?xml version="1.0" encoding="utf-8"?>
<!-- Svg Vector Icons : http://www.onlinewebfonts.com/icon -->
<!DOCTYPE svg PUBLIC "-//W3C//DTD SVG 1.1//EN" "http://www.w3.org/Graphics/SVG/1.1/DTD/svg11.dtd">
<svg version="1.1" xmlns="http://www.w3.org/2000/svg" xmlns:xlink="http://www.w3.org/1999/xlink" x="0px" y="0px" viewBox="0 0 1000 1000" enable-background="new 0 0 1000 1000" xml:space="preserve">
<metadata> Svg Vector Icons : http://www.onlinewebfonts.com/icon </metadata>
<g><path d="M173.2,802.1c-9.7,0-19.3-0.3-29-1c-17.4-1.3-31.8-14-35.1-31.1c-3.4-17.1,5.2-34.3,20.9-42.1c27.3-13.4,50-31.1,67.7-52.7C82.3,617.3,10,514,10,402.5C10,225.4,188.1,81.3,407.2,81.3c219.1,0,397.2,144.1,397.2,321.2c0,177.2-178.1,321.3-397.2,321.3c-4.5,0-9-0.1-13.4-0.3C337.5,774.4,260,802.1,173.2,802.1L173.2,802.1z M407.2,158.5c-176.5,0-320,109.5-320,244c0,92.2,70.8,178.1,180.3,219.2c10.1,3.9,18.3,11.8,22.3,21.9c4.1,10.2,3.6,21.6-1.3,31.3l-1.8,3.9c-2.1,4.5-4.3,9-6.8,13.2c-3.5,5.9-7.3,11.7-11.3,17.3c32.3-11.4,60.3-29.1,82.7-52.1c7.9-8.1,19-12,30.1-11.6c8.5,0.5,17.1,1.1,25.8,1.1c176.5,0,320-109.5,320-244.1C727.2,268.1,583.6,158.5,407.2,158.5L407.2,158.5z"/><path d="M853,918.7c-50,0-97.1-13.4-136.3-39.3c-2.4,0.6-4.8,1-7.2,1.5c-150.3,27.4-297.4-41-349.5-162c-8.4-19.6,0.7-42.3,20.2-50.7c19.5-8.2,42.3,0.6,50.7,20.2c38,88.4,149.5,137.5,264.9,116.5c6.7-1.2,13.2-2.8,19.6-4.4c11.6-3,23.9-0.3,33.4,7.1c14.5,11.5,31.1,20.1,49.3,25.7c0,0-0.1-0.1-0.2-0.1c-2.9-3.8-5.2-7.3-7.5-10.9c-5.9-8.7-9-20.9-6.7-31.1c2.1-10.2,7.4-20.7,16.3-26.3c79.3-49.1,122.8-130.5,110.7-207.3c-9.9-62.9-54-114.8-121.4-142.2c-19.7-8-29.3-30.6-21.1-50.3c8-19.8,30.6-29.3,50.3-21.2c91.6,37.2,154.6,112.6,168.6,201.7c14.8,94.4-27.7,192.2-110,259c15.3,13.3,33.4,23.4,53.9,29.9c16.3,5.3,27.3,20.7,26.9,37.9c-0.5,17.1-12.3,31.9-28.9,36.3C903.3,915.4,877.8,918.7,853,918.7L853,918.7z"/><path d="M253.9,357.4c-27.7,0-50.3,22.5-50.3,50.3c0,27.8,22.5,50.4,50.3,50.4c27.8,0,50.4-22.5,50.4-50.4C304.3,380,281.7,357.4,253.9,357.4L253.9,357.4z"/><path d="M408.2,357.4c-27.8,0-50.3,22.5-50.3,50.3c0,27.8,22.4,50.4,50.3,50.4c27.9,0,50.4-22.5,50.4-50.4C458.6,380,436.1,357.4,408.2,357.4L408.2,357.4z"/><path d="M562.7,357.4c-27.8,0-50.3,22.5-50.3,50.3c0,27.8,22.5,50.4,50.3,50.4s50.4-22.5,50.4-50.4C613,380,590.5,357.4,562.7,357.4L562.7,357.4z"/></g>
</svg>